<svg width="229" height="281" viewBox="0 0 229 281" fill="none" xmlns="http://www.w3.org/2000/svg">
<g opacity="0.1">
<path d="M198.328 124.657C198.328 168.501 162.788 204.043 118.944 204.043C75.1007 204.043 39.5601 168.501 39.5601 124.657C39.5601 80.8145 75.1007 45.2732 118.944 45.2732C162.788 45.2732 198.328 80.8145 198.328 124.657" fill="#FDE2BC"/>
<path d="M6.32511 82.4959C3.68457 79.0146 2.04644 73.9559 2.30324 68.7386C2.54804 63.7719 4.80071 58.8039 8.48457 55.0839C12.5142 51.0146 18.0142 48.8959 23.5783 48.9706C29.0074 49.0439 34.5002 51.2012 38.745 55.6745C42.1522 59.2612 44.3371 64.0479 44.4611 69.4506C44.5767 74.3946 42.8694 79.5972 39.4179 83.6626C35.1964 88.6306 29.147 91.1945 23.0652 91.1199C16.8934 91.0439 10.6876 88.2492 6.32511 82.4959" fill="#EEE2D4"/>
<path d="M40.2909 57.5239C41.5425 68.2625 35.7561 79.4826 24.7665 82.3492C16.2873 84.5599 6.60234 80.2625 2.47314 72.7265C2.96594 76.4639 4.36701 79.9146 6.32475 82.4959C10.6873 88.2492 16.893 91.0439 23.0649 91.1199C29.1466 91.1945 35.1961 88.6306 39.4175 83.6626C42.869 79.5972 44.5764 74.3946 44.4608 69.4506C44.3565 64.9239 42.7941 60.8412 40.2909 57.5239Z" fill="#D2BEAA"/>
<path d="M17.8455 78.5905C16.9966 75.9452 16.2769 73.2052 15.8455 70.4746C15.0138 70.0279 10.9627 67.7839 10.0747 67.2692C8.10234 68.4826 6.32994 69.9439 4.93567 71.7812C5.25341 73.9732 6.48514 77.8346 6.91847 79.1666C8.61021 80.8879 11.1665 82.2305 13.4575 82.7959C15.0851 81.6025 16.6482 80.2212 17.8455 78.5905ZM25.3846 80.7066C26.6842 79.7066 27.8774 78.5452 29.0503 77.4159C30.0737 76.4306 31.1362 75.4252 32.0763 74.3399C31.8279 73.3506 30.6649 68.5306 30.3951 67.3719C27.5685 66.1892 24.6545 65.4026 21.6389 64.9466C20.0337 66.8866 18.0018 68.8066 16.1127 70.4666C16.5409 73.1586 17.2498 75.8599 18.0851 78.4679C20.4217 79.4679 22.8654 80.3332 25.3846 80.7066ZM25.9565 86.3839C28.6231 86.7532 31.5425 86.6639 34.1023 85.8652C35.9695 84.4812 37.9201 82.7639 39.2414 80.8839C39.4998 78.7799 39.2769 76.3586 38.6102 74.4026C36.6326 74.6586 34.2222 74.8386 32.2455 74.5466C31.3065 75.6226 30.2534 76.6159 29.2378 77.6039C28.0357 78.7706 26.8013 79.9599 25.4575 80.9812C25.5061 82.7826 25.7247 84.5986 25.9565 86.3839V86.3839ZM32.7638 54.9692C31.8742 54.6679 27.5565 53.2266 25.1898 53.0279C22.9711 54.1732 20.6873 55.8066 19.1622 57.8466C19.5102 58.7372 21.4029 63.8612 21.7091 64.6919C24.6842 65.1465 27.5659 65.9239 30.3602 67.0799C31.4227 65.4759 34.5018 63.0626 35.2794 62.4772C34.907 59.8906 34.0398 57.2159 32.7638 54.9692V54.9692ZM7.04247 79.6732C6.94874 79.7786 6.15807 80.7079 5.57474 81.3999C3.38621 77.9946 2.07274 73.4372 2.30287 68.7386C2.31327 68.5226 2.34874 68.3079 2.36794 68.0905C3.03207 69.2745 3.94714 70.4706 4.85087 71.4652C6.2362 69.6879 7.97474 68.2532 9.90287 67.0652C10.1935 64.7772 11.2889 60.7812 11.6102 59.6506C10.4966 58.2346 9.31327 56.8559 8.01381 55.6039C8.07474 55.5386 8.13101 55.4719 8.19087 55.4092C9.45554 56.6279 10.6127 57.9626 11.7003 59.3399L11.7013 59.3372C11.7003 59.3279 16.4591 58.1426 18.9149 57.7332C20.4149 55.7066 22.6581 54.0599 24.8575 52.8986C24.3722 52.1199 23.7509 51.4105 23.1685 50.7079C22.6935 50.1319 22.1883 49.5639 21.6482 49.0399C22.2889 48.9892 22.9331 48.9626 23.5779 48.9706C27.0935 49.0172 30.6274 49.9532 33.8394 51.8105C34.2654 52.3319 34.6717 52.8692 35.0305 53.4545C35.8107 53.6679 36.5711 53.9679 37.3118 54.3105C37.5175 54.4919 37.7127 54.6919 37.9122 54.8825C36.9373 54.3652 35.8993 53.9559 34.8455 53.6772C34.2586 54.1679 33.3731 54.7546 33.0607 54.9532C34.3175 57.1986 35.1633 59.8332 35.5373 62.4012C37.3627 63.7732 39.4165 65.1239 40.9113 66.8626C41.9305 66.1892 42.9165 65.4252 43.7299 64.5372C43.757 64.6386 43.7857 64.7399 43.8118 64.8412C42.9618 65.7386 41.9373 66.5092 40.8898 67.1892C40.4695 69.5999 39.619 71.9639 38.8419 74.2746C39.5086 76.2159 39.7482 78.5852 39.5269 80.6905C40.5597 80.2252 41.5389 79.7292 42.3993 79.0012C41.619 80.6532 40.6337 82.2305 39.4175 83.6625C37.5206 85.8945 35.2518 87.6372 32.7805 88.8772C33.1086 88.0079 33.5061 86.8626 33.6466 86.2652C31.117 86.9479 28.3097 86.9999 25.7351 86.6199C23.7091 87.3799 21.1831 87.6572 19.0398 87.6386C18.8446 88.6066 18.6231 89.5706 18.4081 90.5359C18.3227 90.5159 18.2378 90.4879 18.1518 90.4666C18.367 89.5039 18.5867 88.5439 18.7821 87.5759C16.8351 86.2626 14.8509 84.7479 13.2498 83.0225C11.0799 82.4652 8.71954 81.2479 7.04247 79.6732" fill="#DC3626"/>
<path d="M43.8121 64.8412C43.786 64.7399 43.7573 64.6386 43.7303 64.5372C42.9168 65.4252 41.9308 66.1892 40.9116 66.8626C40.5949 66.4946 40.2417 66.1519 39.8829 65.8146C39.1783 69.0186 37.8459 72.0439 35.9464 74.6452C36.8673 74.5946 37.7788 74.5106 38.6105 74.4026C39.2772 76.3586 39.5001 78.7799 39.2417 80.8839C37.9204 82.7639 35.9699 84.4812 34.1027 85.8652C31.5428 86.6639 28.6235 86.7532 25.9568 86.3839C25.7745 84.9706 25.6027 83.5386 25.5125 82.1092C25.2616 82.1852 25.0235 82.2826 24.7668 82.3492C21.3579 83.2386 17.7573 83.0692 14.3996 82.0679C14.0887 82.3159 13.7756 82.5625 13.4579 82.7959C11.1668 82.2305 8.61055 80.8879 6.91881 79.1666C6.80481 78.8146 6.63401 78.2799 6.44015 77.6545C4.85681 76.2465 3.50375 74.6012 2.48975 72.7559C2.92041 75.9745 4.01935 78.9799 5.57508 81.3999C6.15841 80.7079 6.94908 79.7786 7.04281 79.6732C8.71988 81.2479 11.0803 82.4652 13.2501 83.0225C14.8512 84.7479 16.8355 86.2626 18.7824 87.5759C18.5871 88.5439 18.3673 89.5039 18.1521 90.4666C18.2381 90.4879 18.3231 90.5159 18.4084 90.5359C18.6235 89.5706 18.8449 88.6066 19.0401 87.6386C21.1835 87.6572 23.7095 87.3799 25.7355 86.6199C28.31 86.9999 31.1173 86.9479 33.6469 86.2652C33.5064 86.8626 33.1089 88.0079 32.7808 88.8772C35.2521 87.6372 37.5209 85.8945 39.4179 83.6625C40.634 82.2305 41.6193 80.6532 42.3996 79.0012C41.5392 79.7292 40.56 80.2252 39.5272 80.6905C39.7485 78.5852 39.5089 76.2159 38.8423 74.2746C39.6193 71.9639 40.4699 69.5999 40.8901 67.1892C41.9376 66.5092 42.9621 65.7386 43.8121 64.8412" fill="#C12424"/>
<path d="M171.121 273.505C169.92 273.289 168.48 274.04 167.372 274.376C164.534 275.239 161.53 275.415 158.585 275.416C153.141 275.416 147.756 274.301 142.374 273.62C139.618 273.271 136.885 273.044 134.105 273.145C133.014 273.187 129.582 273.253 127.681 273.643C126.529 273.877 126.417 274.32 126.362 274.687C126.016 277.04 126.893 278.279 129.613 278.668C134.469 279.361 139.38 278.428 144.262 278.94C149.781 279.52 155.149 280.535 160.718 280.781C164.38 280.944 168.19 280.519 171.138 278.184C172.584 277.039 173.661 273.961 171.121 273.505" fill="#8F5E3D"/>
<path d="M25.6622 106.793C23.2023 106.98 20.6971 105.807 18.3351 105.271C15.6414 104.66 12.967 105.275 10.4357 106.224C6.77166 107.6 1.56593 110.632 0.273129 114.655C-2.22474 122.427 13.1346 120.536 16.867 120.275C22.7498 119.861 29.217 119.037 34.6898 116.783C36.3602 116.095 37.8638 115.161 38.8081 113.901C40.5409 111.587 40.9815 109.492 38.7602 107.229C35.9435 104.355 29.1898 106.527 25.6622 106.793Z" fill="#8F5E3D"/>
<path d="M216.883 24.9333C217.003 22.8146 215.319 21.6493 215.661 19.2559C215.843 17.9893 215.98 16.9813 215.643 15.7199C215.357 14.6493 214.327 13.7853 213.583 13.0253C212.407 11.8253 212.516 8.96792 211.448 7.46792C210.844 6.61992 209.791 6.13593 208.883 5.71727C207.352 5.0106 206.841 5.09991 205.905 3.62124C205.529 3.02524 205.581 2.54794 205.048 2.02794C202.652 -0.313389 199.564 1.71061 196.597 0.458609C192.813 -1.13739 191.332 1.91725 187.655 2.26525C184.759 2.53858 181.749 2.48659 179.928 5.30392C178.293 7.83459 175.339 10.7932 175.571 13.9652C175.719 15.9706 176.831 17.2399 176.589 19.4399C176.429 20.9106 176.399 22.1026 177.017 23.4439C177.349 24.1612 178.215 24.6679 178.919 24.9426C181.648 26.0079 184.128 27.5159 183.78 30.8786C183.592 32.6893 183.228 35.8719 185.455 36.7519C186.595 37.2039 187.639 37.1866 188.857 37.0906C191.787 36.8586 193.588 38.3253 194.816 40.8613C195.779 42.8506 197.404 44.0693 199.629 43.4639C200.244 43.2973 200.771 43.3212 201.275 43.4132C202.687 43.9626 204.196 45.0332 204.98 43.6959C206.517 41.0719 207.656 42.1559 209.689 41.6786C210.293 41.5373 210.951 40.9492 211.072 40.3212C211.448 38.4106 211.825 36.9813 213.635 35.9666C214.431 35.5186 214.904 35.0879 215.295 34.2772C215.641 33.5546 215.264 32.6186 215.055 31.9479C214.443 30.0026 216.764 27.0933 216.883 24.9333" fill="#9D4529"/>
<path d="M164.445 157.357C162.856 153.744 160.721 150.221 159.633 146.416C159.085 144.496 159.142 142.476 159.193 140.447C159.45 130.1 131.99 89.1345 109.878 99.8345C105.728 101.844 102.697 104.669 100.009 108.752C97.9165 111.932 95.4269 114.788 92.6222 117.357C89.8211 119.924 86.4513 121.831 83.4523 124.152C75.7925 130.085 76.7351 139.841 81.3315 147.436C85.4419 154.232 93.6493 160.047 101.855 157.516C108.192 155.563 112.474 149.112 117.54 145.225C117.789 145.035 118.046 144.856 118.305 144.676C121.024 149.056 122.753 154.195 124.157 158.979C125.253 162.713 125.961 166.484 126.392 170.348C126.712 173.233 127.04 176.224 128.854 178.589C131.809 182.443 137.424 183.188 141.916 183.507C147.188 183.881 152.916 184.009 158.169 183.435C172.101 181.909 168.454 166.473 164.445 157.357" fill="#DC3626"/>
<path d="M140.066 55.8893C139.953 54.7573 139.698 53.5399 138.181 54.4986C135.757 56.0292 133.536 58.0119 131.508 59.8546C128.237 62.8239 124.77 66.1372 122.434 69.9199C118.605 76.1292 126.15 80.6546 129.85 78.9946C133.13 77.5239 139.414 72.3399 142.584 70.6199C144.877 69.3759 145.452 68.4492 143.989 66.6372C141.538 63.5999 140.086 59.7933 140.066 55.8893" fill="#F68A61"/>
<path d="M133.329 72.2932C132.957 70.2252 131.364 68.1625 129.367 67.0065C125.221 64.6079 114.247 69.7145 104.62 73.2719C99.8472 75.0359 94.8952 76.6372 90.3352 78.9225C88.4904 79.8465 85.369 81.6372 87.3264 83.9492C89.1622 86.1185 93.8498 85.8785 96.3368 85.8945C99.9914 85.9185 103.648 85.5705 107.275 85.1585C113.232 84.4825 119.296 83.9985 125.052 82.2238C129.22 80.9398 134.247 77.3879 133.329 72.2932" fill="#F68A61"/>
<path d="M98.3227 84.2932C99.243 82.3225 97.8315 79.9825 96.5009 78.6425C95.2509 77.3852 93.2342 76.9599 91.3837 77.1172C90.1545 76.7532 88.893 76.4932 87.6971 75.9959C86.0529 75.3105 84.4946 74.4985 82.7211 74.2132C81.3367 73.9919 79.4659 74.5972 80.1285 76.2692C80.6597 77.6079 82.3013 78.7372 83.7159 79.4892C83.4914 79.6172 83.2665 79.7465 83.0607 79.8652C80.7222 81.2265 78.3003 82.7959 76.4113 84.8119C73.0285 88.4239 76.2023 87.7932 77.5763 87.3479C78.769 86.9612 79.8966 86.3625 81.0217 85.7585C80.2873 86.8465 79.6622 88.0092 79.2055 89.1945C77.4627 93.7212 79.869 91.8452 81.0217 91.0945C81.8331 90.5665 82.5425 89.8772 83.2638 89.1545C83.8118 88.6052 84.3898 88.0905 84.9862 87.5985C84.117 89.1732 83.4045 90.8759 82.9555 92.5759C81.8029 96.9479 84.3107 94.9612 85.3966 93.9319C86.5009 92.8839 87.3785 91.5172 88.1717 90.0865C87.8383 91.5985 87.6102 93.1372 87.5253 94.6692C87.2769 99.2452 88.9955 97.1745 90.1649 95.3439C91.0175 94.0065 91.4914 92.3758 92.0711 90.9212C93.0206 88.5372 94.3055 87.2692 96.6294 86.2399C97.5451 85.8345 97.9185 85.1572 98.3227 84.2932" fill="#F68A61"/>
<path d="M206.5 58.1599C197.688 48.2386 186.42 39.1346 172.755 37.4986C167.44 36.8612 163.071 37.1865 158.924 38.3519C153.699 39.8212 148.829 42.6252 142.869 46.5172C141.348 47.5119 140.069 48.4493 139.056 49.3559C136.105 52.0026 135.911 52.6292 136.96 56.3066C137.845 59.4039 139.465 64.1799 140.151 66.0172C142.081 71.2106 140.996 72.7466 139.54 75.8959C138.697 77.7186 136.631 78.9239 135.591 80.5346C134.363 82.4386 134.072 84.6759 131.792 85.8519C128.751 87.4199 125.323 88.2492 122.147 89.4972C119.515 90.5306 116.925 91.7119 114.408 93.0012C109.475 95.5279 105.792 99.4972 105.88 102.232C111.524 100.085 118.324 104.104 122.44 107.74C127.452 112.171 129.764 118.904 134.017 123.972C137.664 128.313 142.775 131.187 147.76 133.704C154.436 137.073 157.108 138.247 159.193 143.547C159.98 145.548 163.125 136.609 165.808 132.164C168.992 126.893 173.509 122.227 177.832 117.884C181.788 113.911 186.1 110.353 190.227 106.567C192.996 104.027 195.681 101.557 198.564 99.2879C199.089 99.8799 199.641 100.463 200.257 101.029C202.709 103.28 205.767 104.905 209.104 105.133C212.307 105.633 215.773 104.983 218.908 103.211C221.433 101.783 223.875 99.0626 224.544 96.0772C225.319 92.6199 223.329 89.1586 221.368 85.0332C220.181 82.5372 216.549 69.4759 206.5 58.1599" fill="#4D57B0"/>
<path d="M150.398 90.7012C156.019 85.3425 160.018 78.4119 165.11 72.5852C169.992 66.9959 176.532 62.7812 182.983 58.9639C182.246 58.1012 181.604 57.1865 181.071 56.2119C174.978 59.8799 168.99 63.8799 163.964 68.8879C158.016 74.8132 153.863 82.2879 148.022 88.3252C141.716 94.8439 133.943 99.7265 127.759 106.396C126.66 107.58 125.654 108.831 124.7 110.117C125.472 111.041 126.19 112.012 126.863 113.023C128.214 111.108 129.682 109.257 131.326 107.487C137.072 101.288 144.283 96.5305 150.398 90.7012" fill="#6F7AC5"/>
<path d="M183.679 59.7492C182.576 61.3892 181.463 63.0225 180.115 64.5292C177.159 67.8305 173.855 70.8199 170.799 74.0279C164.819 80.3025 159.664 87.3132 154.839 94.4972C148.12 104.499 140.931 113.976 133.529 123.336C133.696 123.547 133.848 123.767 134.017 123.972C134.619 124.687 135.271 125.349 135.944 125.989C142.885 117.451 149.643 108.779 155.595 99.4705C160.817 91.3012 166.571 83.5119 173.175 76.4025C176.193 73.1532 179.448 70.1319 182.489 66.9052C183.937 65.3679 185.071 63.6826 186.188 61.9839C185.272 61.2826 184.433 60.5372 183.679 59.7492" fill="#6F7AC5"/>
<path d="M113.839 102.484C116.676 97.5159 120.075 92.9586 124.011 88.8146C123.384 89.0332 122.76 89.2559 122.147 89.4972C120.42 90.1759 118.721 90.9372 117.039 91.7305C114.592 94.8625 112.404 98.1905 110.464 101.701C111.593 101.819 112.725 102.093 113.839 102.484Z" fill="#6F7AC5"/>
<path d="M198.677 74.7132C198.515 73.7759 198.323 72.8439 198.113 71.9159C194.076 86.1986 186.447 99.1799 176.511 110.321C170.835 116.685 164.829 122.696 160.084 129.821C158.292 132.515 156.973 135.46 155.925 138.519C156.955 139.457 157.776 140.548 158.497 141.988C159.812 137.78 161.516 133.723 164.068 129.892C169.311 122.015 176.605 115.62 182.628 108.364C189.683 99.8692 195.34 90.1159 199.144 79.7146C199.092 78.0492 198.965 76.3852 198.677 74.7132" fill="#6F7AC5"/>
<path d="M193.095 64.7479C190.32 79.1745 179.333 92.6265 170.757 103.587C162.884 113.651 154.881 123.284 148.88 134.268C149.976 134.821 150.949 135.315 151.828 135.789C158.505 123.517 167.799 112.957 176.42 101.719C184.388 91.3305 193.729 78.8145 196.381 65.3719C196.305 65.1065 196.231 64.8412 196.155 64.5759C195.149 64.7785 194.121 64.8345 193.095 64.7479Z" fill="#6F7AC5"/>
<path d="M179.389 51.1346C165.981 57.4226 156.001 66.7879 145.741 77.8772C139.931 84.1572 131.989 87.8119 125.879 93.7932C122.747 96.8599 119.823 100.367 117.535 104.204C118.525 104.775 119.468 105.401 120.345 106.052C122.776 101.979 126.019 98.3572 129.389 95.0586C135.12 89.4506 142.445 85.9972 148.119 80.2519C153.321 74.9825 157.853 69.3679 163.595 64.6146C168.628 60.4466 174.284 57.0692 180.228 54.3599C179.844 53.3426 179.553 52.2746 179.389 51.1346" fill="#6F7AC5"/>
<path d="M188.165 63.2639C183.356 78.5092 168.997 89.1252 159.711 101.541C154.285 108.795 150.631 117.227 145.837 124.885C144.627 126.82 143.324 128.691 141.96 130.523C142.897 131.095 143.849 131.637 144.811 132.159C145.784 130.861 146.741 129.553 147.664 128.215C153.18 120.208 157.004 111.199 162.612 103.237C171.795 90.1999 186.344 80.0585 191.323 64.4652C190.233 64.2079 189.171 63.7985 188.165 63.2639Z" fill="#6F7AC5"/>
<path d="M224.155 91.3238C223.876 90.4545 223.513 89.5678 223.096 88.6545C221.981 87.7905 220.669 87.1119 219.243 86.6372C218.82 86.4945 218.396 86.3905 217.971 86.3025C215.375 77.0599 211.269 67.9785 205.139 60.5412C204.68 59.9825 203.892 60.7799 204.348 61.3319C210.245 68.4892 214.197 77.2332 216.744 86.1159C212.556 85.7199 208.437 87.6905 205.633 90.8799C203.033 93.8372 201.781 98.2172 201.812 102.295C202.148 102.543 202.493 102.776 202.847 102.996C202.6 99.0465 204.132 94.5919 206.425 91.6705C209.099 88.2652 213.481 86.6799 217.687 87.3999C220.32 87.8505 222.72 89.2545 224.155 91.3238" fill="#EEE2D4"/>
<path d="M203.765 55.2078C203.356 54.7825 202.944 54.3598 202.525 53.9412C202.745 56.5932 202.354 59.2865 201.085 61.4359C198.245 66.2372 191.005 64.1892 187.312 61.9799C179.945 57.5732 176.628 45.8652 183.957 40.6279C183.578 40.4626 183.202 40.2919 182.821 40.1372C180.153 42.3039 178.678 45.4479 178.617 49.2039C178.616 49.2799 178.621 49.3532 178.621 49.4306C171.112 50.9359 164.068 53.5919 157.648 57.8185C151.301 61.9985 145.848 67.4225 140.773 73.0852C140.468 73.9719 140.025 74.8452 139.54 75.8959C139.392 76.2172 139.194 76.5159 138.982 76.8052C144.754 70.1585 150.894 63.7399 158.213 58.7852C164.404 54.5972 171.39 52.0479 178.674 50.5612C179.13 55.6732 182.572 60.1759 186.746 62.9465C189.39 64.7039 192.761 65.7132 195.91 65.3612C198.957 75.4265 199.878 85.9065 198.398 96.3279C198.225 97.5519 198.002 98.7585 197.746 99.9532C198.018 99.7319 198.288 99.5052 198.564 99.2879C198.681 99.4212 198.809 99.5532 198.932 99.6865C199.197 98.3959 199.424 97.0932 199.598 95.7692C200.956 85.4559 200.016 75.1199 197.02 65.1705C198.48 64.8452 199.865 64.2065 201.073 63.1705C203.188 61.3559 203.876 58.3158 203.765 55.2078" fill="#3343A0"/>
<path d="M196.507 39.9453C192.855 42.2293 189.059 44.9679 184.729 45.4906C183.308 45.6626 182.575 45.0826 182.273 46.6173C181.927 48.3866 181.831 50.2826 182.559 51.8959C183.74 54.5199 185.851 56.7159 188.051 58.5279C188.928 59.2506 191.753 60.9973 194.3 61.7679C197.877 62.8533 198.864 60.2253 199.244 58.1493C199.737 55.4399 200.085 52.6826 200.736 49.9893C201.537 46.6666 202.441 43.3159 203.012 39.9373C203.201 38.8106 203.581 37.0492 200.451 38.0292C198.843 38.5332 197.117 39.5613 196.507 39.9453" fill="#F46E4D"/>
<path d="M93.6027 136.229C91.2319 133.045 88.0012 130.4 83.9726 129.899C81.0559 129.536 78.4346 131.065 76.2278 133.013C75.036 127.816 71.1246 124.321 65.422 122.259C61.1876 120.728 56.6027 120.252 52.1912 119.475C50.8292 119.236 49.5158 118.92 48.2267 118.557C47.2111 118.063 46.2043 117.548 45.2183 116.981C43.8136 116.171 41.983 114.239 40.3319 113.291C31.5179 108.231 24.6158 119.26 31.3735 123.369C34.0116 124.972 37.4012 125.441 40.1626 126.491C46.1772 128.776 50.6704 133.973 54.7199 138.745C58.5679 143.281 62.2892 148.033 67.1772 151.515C72.3199 155.179 79.0516 157.66 85.147 155.079C87.6704 154.009 90.0871 152.856 92.3778 151.345C93.6054 150.535 96.9387 148.379 97.8658 146.643C98.3579 145.72 97.6756 141.697 93.6027 136.229" fill="#F68A61"/>
<path d="M70.2574 147.145C69.786 141.977 71.8986 133.868 76.1054 132.555C74.7912 127.613 70.9527 124.259 65.422 122.259C61.1876 120.728 56.6027 120.252 52.1912 119.475C50.8292 119.236 49.5158 118.92 48.2267 118.557C47.2111 118.063 46.2043 117.548 45.2183 116.981C43.8136 116.171 41.983 114.239 40.3319 113.291C31.5179 108.231 24.6158 119.26 31.3735 123.369C34.0116 124.972 37.4012 125.441 40.1626 126.491C46.1772 128.776 50.6704 133.973 54.7199 138.745C58.5679 143.281 62.2892 148.033 67.1772 151.515C68.9855 152.803 70.9918 153.939 73.0991 154.765C71.3355 152.643 70.5038 149.852 70.2574 147.145Z" fill="#4D57B0"/>
<path d="M136.425 173.955C140.329 179.733 143.68 185.596 145.639 192.389C146.089 193.949 146.425 195.533 146.695 197.128C143.467 199.393 141.508 203.577 140.135 207.076C137.309 214.285 138.067 221.94 137.692 229.504C137.251 238.387 135.109 247.409 131.968 255.705C130.448 259.717 126.729 267.063 133.117 269.112C137.513 270.523 142.007 268.436 144.097 264.437C146.556 259.729 146.196 253.885 147.416 248.816C148.319 245.067 150.364 241.425 152.013 237.956C154.023 233.732 156.183 229.575 158.469 225.493C166.668 210.86 167.181 204.295 166.968 203.589C169.059 199.056 170.085 198.053 169.129 191.169C168.383 185.772 166.417 179.668 165.128 176.611C164.628 175.427 164.051 175.339 163.892 175.181C163.051 174.344 149.2 171.328 140.909 171.525C136.881 171.62 135.479 172.552 136.425 173.955Z" fill="#F68A61"/>
<path d="M146.475 197.307C143.383 199.605 141.473 203.66 140.135 207.076C137.309 214.285 138.067 221.94 137.692 229.504C137.251 238.387 135.109 247.409 131.968 255.705C130.448 259.717 126.729 267.063 133.117 269.112C137.513 270.523 142.007 268.436 144.097 264.437C146.556 259.729 146.196 253.885 147.416 248.816C148.319 245.067 150.364 241.425 152.013 237.956C154.023 233.732 156.183 229.575 158.469 225.493C166.243 211.617 167.107 205.005 166.993 203.756C162.888 207.548 149.729 205.915 146.475 197.307" fill="#4D57B0"/>
<path d="M36.6846 107.299C34.8814 106.62 32.6731 107.127 30.845 107.448C27.0731 108.108 24.0751 107.724 20.424 106.643C15.621 105.221 11.8179 105.776 7.54804 108.351C4.6887 110.075 1.25644 112.865 0.427235 116.269C-0.729031 121.021 7.85684 121.461 10.6194 121.68C13.4204 121.901 16.2772 121.779 19.06 122.175C23.4699 122.803 27.6846 126.525 32.2735 125.129C32.7564 124.981 32.8283 124.808 32.6174 124.405C32.536 124.249 32.424 124.111 32.2626 123.944C31.0611 122.704 31.7111 121.324 32.4622 120.011C33.1079 118.88 34.3543 118.127 34.4543 116.745C34.5532 115.389 32.9272 115.356 31.574 115.619C33.0376 113.965 34.8387 112.843 37.1262 112.609C38.7319 112.444 41.1902 114.279 42.3231 115.179C42.885 115.625 42.9308 115.263 42.9048 115.001C42.5767 111.711 39.6226 108.405 36.6846 107.299" fill="#44261E"/>
<path d="M171.047 271.713C169.384 270.733 167.419 270.553 165.541 270.256C162.743 269.811 160.159 268.863 157.671 267.509C156.196 266.707 154.823 265.739 153.468 264.744C153.088 264.463 152.708 264.187 152.331 263.905C151.867 263.557 151.404 263.212 150.939 262.872C150.212 262.341 149.509 261.999 148.771 261.891C148.816 261.599 148.867 261.307 148.933 261.016C149.12 260.193 149.361 259.423 149.164 258.581C148.925 257.572 147.877 257.579 147.076 257.819C145.931 258.165 144.853 258.976 143.967 259.767C142.68 260.911 142.431 261.897 142.711 263.273C141.452 264.195 140.228 265.163 138.865 265.945C134.796 268.285 131.619 265.041 130.636 261.344C130.405 260.477 130.564 259.616 129.467 260.832C126.889 263.699 125.953 268.204 125.984 271.879C125.991 272.841 125.985 275.199 126.841 275.909C128.143 276.991 130.049 277.045 131.671 277.14C134.388 277.301 137.176 277.059 139.893 276.947C143.465 276.801 146.935 277.132 150.465 277.675C154.415 278.28 158.473 279.259 162.496 279.168C165.235 279.273 168.237 279.072 170.237 277.213C171.611 275.933 173.392 273.097 171.047 271.713" fill="#44261E"/>
<path d="M223.772 97.2212C221.036 92.6959 215.784 89.7559 210.922 91.9625C208.876 92.8905 208.908 93.8239 209.484 96.4012C210.212 99.6639 210.844 102.953 211.606 106.205C212.396 109.579 213.13 113.028 215.238 115.856C216.078 116.984 217.674 118.012 219.39 118.848C224.354 121.269 226.075 121.997 228.155 114.879C228.663 113.14 228.962 111.503 228.947 110.767C228.838 106.027 226.334 101.457 223.772 97.2212" fill="#F68A61"/>
<path d="M220.509 102.156C218.522 100.34 216.39 98.6758 214.241 97.0385C213.148 96.2038 207.282 91.5598 206.301 91.1452C205.346 90.7412 204.294 90.5758 203.226 90.6118C200.873 90.6878 194.412 94.6771 192.225 98.0291C191.217 99.5718 192.158 101.489 193.96 100.576C194.972 100.062 195.849 99.2998 196.778 98.6611C197.514 98.1531 198.285 97.7051 199.054 97.2625C197.826 98.5025 196.741 99.9558 195.734 101.215C195.138 101.957 193.702 103.444 194.216 104.533C194.852 105.888 197.325 104.524 199.638 102.828C198.606 103.908 197.696 105.06 197.404 106.553C197.345 106.852 197.661 107.066 197.924 107.034C199.626 106.829 200.86 105.719 202.217 104.783C201.225 106.331 200.636 107.813 201.65 108.193C202.966 108.686 204.926 107.324 205.968 106.709C206.438 106.43 206.95 106.124 207.468 105.796C210.628 110.374 211.728 116.313 216.998 119.189C219.065 120.317 221.914 120.996 224.253 120.69C226.086 120.452 227.294 117.582 227.557 116.085C228.1 113.012 227.681 109.757 226.104 107.326C224.729 105.208 222.348 103.84 220.509 102.156" fill="#F68A61"/>
<path d="M204.892 11.9479C202.295 10.1026 199.204 8.85591 196.028 8.45858C191.321 7.87058 185.585 9.66255 182.153 15.2959C181.013 17.1652 180.127 19.1932 179.435 21.0599C178.344 23.9985 177.637 27.2906 177.405 30.6279C176.947 33.7359 176.837 36.9492 177.261 39.9492C177.859 44.1812 179.713 47.8786 184.405 48.2199C190.595 48.6692 196.235 45.4732 200.949 41.7799C209.336 35.2079 215.629 19.5786 204.892 11.9479" fill="#F68A61"/>
<path d="M210.064 32.3319C209.637 31.5226 208.996 31.0332 208.253 30.7906C204.143 29.4439 199.959 34.0906 200.455 38.0533C200.9 41.6186 204.6 41.4012 207.007 39.9652C209.528 38.4586 211.564 35.1826 210.064 32.3319" fill="#F68A61"/>
<path d="M211.865 20.0172C212.048 17.4705 208.989 14.9918 207.859 13.0118C206.499 10.6292 203.773 10.3785 201.529 9.26782C198.724 7.87982 197.256 6.93583 194.093 7.83716C191.149 8.67583 187.772 8.27715 185.02 9.65448C183.917 10.2078 182.78 11.7052 182.343 12.9665C181.504 15.3839 183.256 15.5558 184.496 15.0131C185.223 14.6971 188.632 12.9412 187.957 16.2612C187.641 17.8105 187.483 18.9238 189.059 19.7585C189.624 20.0585 190.585 19.8852 191.151 19.7892C192.687 19.5318 194.759 18.9345 195.511 21.2652C195.736 21.9678 195.669 22.9212 195.804 23.6812C196.167 25.7132 198.651 25.7745 200.224 25.8211C202.664 25.8918 204.368 27.6625 203.667 30.2438C203.487 30.9051 203.284 31.5505 203.143 32.2252C202.979 33.0065 203.2 33.7731 203.556 34.4545C204.155 35.6078 205.427 34.6358 206.005 34.1078C206.201 33.9291 206.468 33.3358 206.593 33.0932C207.256 31.8065 209.041 33.0158 209.841 33.4905C210.395 33.8198 211.104 33.4891 211.552 33.1798C211.813 33.0011 211.984 32.4465 212.005 32.1585C212.135 30.4065 212.057 29.1492 212.797 27.4279C214.032 24.5612 211.653 22.9505 211.865 20.0172" fill="#9D4529"/>
<path d="M65.1912 122.184C61.021 120.717 56.5235 120.239 52.1912 119.475C50.8292 119.236 49.5158 118.92 48.2267 118.557C48.0584 118.475 47.8934 118.388 47.7251 118.305C44.2512 117.84 39.5622 124.629 42.0116 127.312C47.1158 129.872 51.0975 134.476 54.7199 138.745C55.2215 139.337 55.7215 139.933 56.2226 140.529C53.9803 136.179 56.2902 126.029 65.1912 122.184Z" fill="#EEE2D4"/>
<path d="M56.2692 120.143C53.6771 121.419 51.5307 123.452 50.1312 126.384C49.25 128.229 48.8458 130.26 48.8291 132.3C49.6755 133.109 50.4906 133.952 51.2823 134.813C50.8968 132.555 51.1172 130.215 51.8932 127.947C53.2954 123.847 56.9135 121.704 60.8734 120.987C59.3511 120.656 57.8099 120.392 56.2692 120.143" fill="#DC3626"/>
<path d="M44.4673 128.741C45.2078 129.237 45.9239 129.776 46.6193 130.341C46.3761 125.825 48.9542 121.488 53.06 119.621C52.7693 119.573 52.4787 119.527 52.1911 119.475C51.3917 119.335 50.6121 119.161 49.8406 118.973C46.7381 121.267 44.7641 124.851 44.4673 128.741Z" fill="#DC3626"/>
<path d="M138.236 215.359C137.734 220.023 137.925 224.78 137.692 229.504C137.461 234.124 136.765 238.777 135.716 243.351C136.477 248.655 145.249 251.363 147.293 249.376C147.333 249.189 147.37 249.001 147.416 248.816C148.318 245.067 150.364 241.425 152.013 237.956C154.022 233.732 156.182 229.575 158.469 225.493C158.666 225.143 158.846 224.809 159.03 224.473C154.581 226.724 141.144 225.476 138.236 215.359" fill="#EEE2D4"/>
<path d="M137.271 234.345C137.163 235.273 137.041 236.199 136.9 237.128C140.424 240.317 145.429 241.632 150.375 241.309C150.765 240.509 151.156 239.719 151.539 238.936C146.265 239.624 140.588 238.336 137.271 234.345Z" fill="#DC3626"/>
<path d="M137.748 228.127C137.733 228.585 137.715 229.045 137.692 229.504C137.665 230.06 137.611 230.615 137.571 231.169C141.561 234.983 147.337 236.689 152.951 236.072C153.356 235.243 153.767 234.416 154.183 233.591C148.144 234.725 141.489 232.947 137.748 228.127" fill="#DC3626"/>
<path d="M69.7721 134.201C66.7346 139.029 66.4346 145.26 68.0923 150.629C68.3048 151.316 69.385 151.024 69.1721 150.332C67.5991 145.235 67.8543 139.352 70.7382 134.767C71.1246 134.155 70.1549 133.592 69.7721 134.201" fill="#EEE2D4"/>
<path d="M71.3163 132.353C71.1756 132.489 71.0392 132.628 70.9048 132.771C70.4073 133.293 71.1975 134.085 71.6964 133.561C71.8303 133.42 71.9673 133.281 72.1079 133.144C72.6235 132.639 71.8319 131.848 71.3163 132.353Z" fill="#EEE2D4"/>
<path d="M163.847 207.233C157.558 209.496 149.656 207.275 146.227 201.34C145.866 200.716 144.899 201.279 145.26 201.905C148.926 208.249 157.388 210.744 164.143 208.313C164.818 208.071 164.527 206.988 163.847 207.233Z" fill="#EEE2D4"/>
<path d="M174.296 39.5772C162.016 38.0559 150.048 43.4599 140.408 50.6825C140.311 49.9145 140.245 49.1545 140.212 48.4012C139.837 48.6945 139.481 48.9825 139.159 49.2692C139.728 55.6705 142.771 62.8799 141.008 68.9625C141.204 69.9919 141.231 70.8465 141.127 71.6185C144.211 65.6585 141.645 58.5919 140.588 51.9226C140.604 51.9132 140.619 51.9132 140.632 51.9012C150.196 44.6519 162.04 39.1786 174.296 40.6972C175.013 40.7866 175.004 39.6652 174.296 39.5772" fill="#EEE2D4"/>
<path d="M127.142 67.9052C128.57 68.7945 129.333 70.2252 129.293 71.9012C129.274 72.6239 130.394 72.6225 130.41 71.9012C130.461 69.8305 129.46 68.0305 127.708 66.9399C127.093 66.5559 126.53 67.5252 127.142 67.9052" fill="#E65740"/>
<path d="M212.978 96.7492C217.084 100.705 223.388 103.309 226.105 108.459C226.444 109.096 227.409 108.531 227.07 107.892C224.281 102.604 217.953 99.9865 213.77 95.9572C213.25 95.4559 212.458 96.2465 212.978 96.7492Z" fill="#E65740"/>
<path d="M158.405 197.625C160.716 198.829 163.278 198.492 165.409 197.065C166.006 196.665 165.446 195.695 164.845 196.099C163.056 197.297 160.937 197.683 158.97 196.657C158.332 196.325 157.765 197.291 158.405 197.625" fill="#E65740"/>
<path d="M76.3777 144.787C76.7616 147.807 78.2006 150.996 81.2678 152.047C81.9542 152.28 82.2449 151.199 81.5662 150.967C79.0245 150.096 77.8152 147.273 77.4969 144.787C77.4084 144.081 76.2876 144.072 76.3777 144.787" fill="#E65740"/>
<path d="M121.193 142.043C124.756 137.613 130.175 134.279 135.805 133.401C136.48 133.297 136.192 132.275 135.524 132.38C129.737 133.28 124.104 136.743 120.444 141.293C120.019 141.82 120.765 142.576 121.193 142.043Z" fill="#BF2424"/>
<path d="M124.009 142.577C126.993 141.653 130.01 141.063 133.145 141.137C133.83 141.155 133.829 140.093 133.145 140.077C129.917 140 126.801 140.603 123.726 141.555C123.074 141.756 123.352 142.779 124.009 142.577" fill="#BF2424"/>
<path d="M135.003 141.137C135.047 141.137 135.091 141.137 135.135 141.137C135.819 141.137 135.819 140.077 135.135 140.077C135.091 140.077 135.047 140.077 135.003 140.077C134.317 140.077 134.317 141.137 135.003 141.137Z" fill="#BF2424"/>
<path d="M92.1832 127.015C99.2467 130.563 103.72 137.188 104.117 145.115C104.151 145.795 105.211 145.799 105.177 145.115C104.761 136.832 100.121 129.817 92.718 126.099C92.1087 125.793 91.5728 126.707 92.1832 127.015" fill="#BF2424"/>
<path d="M132.095 166.305C139.752 164.235 147.812 164.741 155.407 166.835C156.068 167.017 156.348 165.993 155.689 165.812C147.916 163.671 139.647 163.165 131.812 165.283C131.152 165.46 131.433 166.483 132.095 166.305" fill="#BF2424"/>
<path d="M124.265 127.087C124.226 128.991 123.688 130.768 122.96 132.513C122.693 133.144 123.721 133.417 123.981 132.795C124.748 130.96 125.285 129.085 125.325 127.087C125.34 126.403 124.278 126.404 124.265 127.087Z" fill="#BF2424"/>
</g>
</svg>
